<svg xmlns="http://www.w3.org/2000/svg" viewBox="0 0 291.7 291.73"><g id="Layer_2" data-name="Layer 2"><g id="Layer_1-2" data-name="Layer 1"><path d="M291.7,29.56V262.17a29.54,29.54,0,0,1-29.53,29.56H29.53A29.54,29.54,0,0,1,0,262.17V29.56A29.52,29.52,0,0,1,29.53,0H262.17A29.52,29.52,0,0,1,291.7,29.56Z" fill="#d6eefb"/><path d="M291.7,29.56V220.15C127.66,189,73.15,75.56,55.1,0H262.17A29.52,29.52,0,0,1,291.7,29.56Z" fill="#e0f3fd"/><path d="M145.85,16.13A66.65,66.65,0,0,0,79.21,82.77V208.93a66.65,66.65,0,1,0,133.29,0V82.77A66.64,66.64,0,0,0,145.85,16.13Zm50,192.8a50,50,0,1,1-100,0V82.77a50,50,0,0,1,100,0Z" fill="#186599"/><path d="M147,42.25a41.91,41.91,0,0,0-43.1,41.91v48.76a41.92,41.92,0,0,0,41.91,41.92h0a41.92,41.92,0,0,0,41.92-41.92V85C187.77,62.18,169.87,42.88,147,42.25Zm-1.18,118.9a28.23,28.23,0,0,1-28.23-28.23V83.54a28.23,28.23,0,1,1,56.46,0v49.38a28.23,28.23,0,0,1-28.23,28.23Z" fill="#54c7ef"/><path d="M174.08,208.1v.54c0,15.53-12.16,28.85-27.69,29.13a28.22,28.22,0,0,1-28.76-28.2V208.1a6.84,6.84,0,0,0-6.84-6.84h0A6.85,6.85,0,0,0,104,208.1v.44c0,23.18,18.4,42.78,41.59,42.94a41.93,41.93,0,0,0,42.22-41.91V208.1a6.84,6.84,0,0,0-6.84-6.84h0A6.84,6.84,0,0,0,174.08,208.1Z" fill="#186599"/><path d="M103.94,96h13.69a0,0,0,0,1,0,0v97.38a2.65,2.65,0,0,1-2.65,2.65h-8.4a2.65,2.65,0,0,1-2.65-2.65V96a0,0,0,0,1,0,0Z" fill="#54c7ef"/><path d="M103.94,140.17a34.91,34.91,0,0,0,13.69,23.74v6.53S105.15,160.2,103.94,140.17Z" fill="#38b3d2"/><circle cx="180.63" cy="191.85" r="6.61" fill="#186599"/></g></g></svg>