<svg width="244" height="285" viewBox="0 0 244 285" fill="none" xmlns="http://www.w3.org/2000/svg">
<rect y="65" width="24.3587" height="24.3587" fill="#F7F9FC"/>
<rect x="109.821" y="65" width="24.3587" height="24.3587" fill="#F7F9FC"/>
<rect x="54.9103" y="65" width="24.3587" height="24.3587" fill="#F7F9FC"/>
<rect x="164.731" y="65" width="24.3587" height="24.3587" fill="#F7F9FC"/>
<rect x="219.641" y="65" width="24.3587" height="24.3587" fill="#F7F9FC"/>
<rect x="54.9103" y="119.91" width="24.3587" height="24.3587" fill="#F7F9FC"/>
<rect x="164.731" y="119.91" width="24.3587" height="24.3587" fill="#F7F9FC"/>
<rect x="219.641" y="119.91" width="24.3587" height="24.3587" fill="#F7F9FC"/>
<rect y="119.91" width="24.3587" height="24.3587" fill="#F7F9FC"/>
<rect x="109.821" y="119.91" width="24.3587" height="24.3587" fill="#F7F9FC"/>
<rect y="174.821" width="24.3587" height="24.3587" fill="#F7F9FC"/>
<rect x="109.821" y="174.821" width="24.3587" height="24.3587" fill="#F7F9FC"/>
<rect x="54.9103" y="174.821" width="24.3587" height="24.3587" fill="#F7F9FC"/>
<rect x="164.731" y="174.821" width="24.3587" height="24.3587" fill="#F7F9FC"/>
<rect x="219.641" y="174.821" width="24.3587" height="24.3587" fill="#F7F9FC"/>
<path d="M40.3359 248.836H31.6406V243.352H40.3359C41.6797 243.352 42.7734 243.133 43.6172 242.695C44.4609 242.242 45.0781 241.617 45.4688 240.82C45.8594 240.023 46.0547 239.125 46.0547 238.125C46.0547 237.109 45.8594 236.164 45.4688 235.289C45.0781 234.414 44.4609 233.711 43.6172 233.18C42.7734 232.648 41.6797 232.383 40.3359 232.383H34.0781V261H27.0469V226.875H40.3359C43.0078 226.875 45.2969 227.359 47.2031 228.328C49.125 229.281 50.5938 230.602 51.6094 232.289C52.625 233.977 53.1328 235.906 53.1328 238.078C53.1328 240.281 52.625 242.188 51.6094 243.797C50.5938 245.406 49.125 246.648 47.2031 247.523C45.2969 248.398 43.0078 248.836 40.3359 248.836ZM68.9062 261.469C66.9375 261.469 65.1719 261.156 63.6094 260.531C62.0469 259.891 60.7188 259.008 59.625 257.883C58.5469 256.758 57.7188 255.453 57.1406 253.969C56.5625 252.469 56.2734 250.875 56.2734 249.188V248.25C56.2734 246.328 56.5469 244.57 57.0938 242.977C57.6406 241.383 58.4219 240 59.4375 238.828C60.4688 237.656 61.7188 236.758 63.1875 236.133C64.6562 235.492 66.3125 235.172 68.1562 235.172C69.9531 235.172 71.5469 235.469 72.9375 236.062C74.3281 236.656 75.4922 237.5 76.4297 238.594C77.3828 239.688 78.1016 241 78.5859 242.531C79.0703 244.047 79.3125 245.734 79.3125 247.594V250.406H59.1562V245.906H72.6797V245.391C72.6797 244.453 72.5078 243.617 72.1641 242.883C71.8359 242.133 71.3359 241.539 70.6641 241.102C69.9922 240.664 69.1328 240.445 68.0859 240.445C67.1953 240.445 66.4297 240.641 65.7891 241.031C65.1484 241.422 64.625 241.969 64.2188 242.672C63.8281 243.375 63.5312 244.203 63.3281 245.156C63.1406 246.094 63.0469 247.125 63.0469 248.25V249.188C63.0469 250.203 63.1875 251.141 63.4688 252C63.7656 252.859 64.1797 253.602 64.7109 254.227C65.2578 254.852 65.9141 255.336 66.6797 255.68C67.4609 256.023 68.3438 256.195 69.3281 256.195C70.5469 256.195 71.6797 255.961 72.7266 255.492C73.7891 255.008 74.7031 254.281 75.4688 253.312L78.75 256.875C78.2188 257.641 77.4922 258.375 76.5703 259.078C75.6641 259.781 74.5703 260.359 73.2891 260.812C72.0078 261.25 70.5469 261.469 68.9062 261.469ZM89.7656 241.055V261H83.0156V235.641H89.3438L89.7656 241.055ZM88.7812 247.43H86.9531C86.9531 245.555 87.1953 243.867 87.6797 242.367C88.1641 240.852 88.8438 239.562 89.7188 238.5C90.5938 237.422 91.6328 236.602 92.8359 236.039C94.0547 235.461 95.4141 235.172 96.9141 235.172C98.1016 235.172 99.1875 235.344 100.172 235.688C101.156 236.031 102 236.578 102.703 237.328C103.422 238.078 103.969 239.07 104.344 240.305C104.734 241.539 104.93 243.047 104.93 244.828V261H98.1328V244.805C98.1328 243.68 97.9766 242.805 97.6641 242.18C97.3516 241.555 96.8906 241.117 96.2812 240.867C95.6875 240.602 94.9531 240.469 94.0781 240.469C93.1719 240.469 92.3828 240.648 91.7109 241.008C91.0547 241.367 90.5078 241.867 90.0703 242.508C89.6484 243.133 89.3281 243.867 89.1094 244.711C88.8906 245.555 88.7812 246.461 88.7812 247.43ZM117.188 235.641V261H110.414V235.641H117.188ZM109.992 229.031C109.992 228.047 110.336 227.234 111.023 226.594C111.711 225.953 112.633 225.633 113.789 225.633C114.93 225.633 115.844 225.953 116.531 226.594C117.234 227.234 117.586 228.047 117.586 229.031C117.586 230.016 117.234 230.828 116.531 231.469C115.844 232.109 114.93 232.43 113.789 232.43C112.633 232.43 111.711 232.109 111.023 231.469C110.336 230.828 109.992 230.016 109.992 229.031ZM133.242 256.195C134.07 256.195 134.805 256.039 135.445 255.727C136.086 255.398 136.586 254.945 136.945 254.367C137.32 253.773 137.516 253.078 137.531 252.281H143.883C143.867 254.062 143.391 255.648 142.453 257.039C141.516 258.414 140.258 259.5 138.68 260.297C137.102 261.078 135.336 261.469 133.383 261.469C131.414 261.469 129.695 261.141 128.227 260.484C126.773 259.828 125.562 258.922 124.594 257.766C123.625 256.594 122.898 255.234 122.414 253.688C121.93 252.125 121.688 250.453 121.688 248.672V247.992C121.688 246.195 121.93 244.523 122.414 242.977C122.898 241.414 123.625 240.055 124.594 238.898C125.562 237.727 126.773 236.812 128.227 236.156C129.68 235.5 131.383 235.172 133.336 235.172C135.414 235.172 137.234 235.57 138.797 236.367C140.375 237.164 141.609 238.305 142.5 239.789C143.406 241.258 143.867 243 143.883 245.016H137.531C137.516 244.172 137.336 243.406 136.992 242.719C136.664 242.031 136.18 241.484 135.539 241.078C134.914 240.656 134.141 240.445 133.219 240.445C132.234 240.445 131.43 240.656 130.805 241.078C130.18 241.484 129.695 242.047 129.352 242.766C129.008 243.469 128.766 244.273 128.625 245.18C128.5 246.07 128.438 247.008 128.438 247.992V248.672C128.438 249.656 128.5 250.602 128.625 251.508C128.75 252.414 128.984 253.219 129.328 253.922C129.688 254.625 130.18 255.18 130.805 255.586C131.43 255.992 132.242 256.195 133.242 256.195ZM154.922 235.641V261H148.148V235.641H154.922ZM147.727 229.031C147.727 228.047 148.07 227.234 148.758 226.594C149.445 225.953 150.367 225.633 151.523 225.633C152.664 225.633 153.578 225.953 154.266 226.594C154.969 227.234 155.32 228.047 155.32 229.031C155.32 230.016 154.969 230.828 154.266 231.469C153.578 232.109 152.664 232.43 151.523 232.43C150.367 232.43 149.445 232.109 148.758 231.469C148.07 230.828 147.727 230.016 147.727 229.031ZM167.625 225V261H160.852V225H167.625ZM180.328 235.641V261H173.555V235.641H180.328ZM173.133 229.031C173.133 228.047 173.477 227.234 174.164 226.594C174.852 225.953 175.773 225.633 176.93 225.633C178.07 225.633 178.984 225.953 179.672 226.594C180.375 227.234 180.727 228.047 180.727 229.031C180.727 230.016 180.375 230.828 179.672 231.469C178.984 232.109 178.07 232.43 176.93 232.43C175.773 232.43 174.852 232.109 174.164 231.469C173.477 230.828 173.133 230.016 173.133 229.031ZM192.516 241.055V261H185.766V235.641H192.094L192.516 241.055ZM191.531 247.43H189.703C189.703 245.555 189.945 243.867 190.43 242.367C190.914 240.852 191.594 239.562 192.469 238.5C193.344 237.422 194.383 236.602 195.586 236.039C196.805 235.461 198.164 235.172 199.664 235.172C200.852 235.172 201.938 235.344 202.922 235.688C203.906 236.031 204.75 236.578 205.453 237.328C206.172 238.078 206.719 239.07 207.094 240.305C207.484 241.539 207.68 243.047 207.68 244.828V261H200.883V244.805C200.883 243.68 200.727 242.805 200.414 242.18C200.102 241.555 199.641 241.117 199.031 240.867C198.438 240.602 197.703 240.469 196.828 240.469C195.922 240.469 195.133 240.648 194.461 241.008C193.805 241.367 193.258 241.867 192.82 242.508C192.398 243.133 192.078 243.867 191.859 244.711C191.641 245.555 191.531 246.461 191.531 247.43Z" fill="#186599"/>
<line x1="63" y1="283" x2="173" y2="283" stroke="#186599" stroke-width="4"/>
<path d="M60.488 164.472H54.056V171H60.488V164.472ZM95.192 189.24H89.48V171H83.048V176.328H71.624V171H65.192V195.24C65.192 198.888 62.552 201.144 57.56 201.144C52.52 201.144 49.352 198.552 49.352 194.952C49.352 193.224 49.928 188.52 50.984 181.848L44.648 180.936C43.832 186.072 42.92 192.36 42.92 194.952C42.92 201.864 49.16 206.904 57.56 206.904C65.864 206.904 71.624 202.2 71.624 195.24V182.088H83.048V195H95.192C95.96 195 96.152 193.896 96.152 192.12C96.152 190.344 95.96 189.24 95.192 189.24ZM78.296 204.408H84.728V197.88H78.296V204.408ZM87.752 204.408H94.184V197.88H87.752V204.408ZM114.484 189.24H108.772V161.4H102.34V189.24H95.1875C94.4195 189.24 94.2275 190.344 94.2275 192.12C94.2275 193.896 94.4195 195 95.1875 195H114.484C115.252 195 115.444 193.896 115.444 192.12C115.444 190.344 115.252 189.24 114.484 189.24ZM160.772 189.24H155.06V181.704C155.06 179.784 154.292 174.456 153.716 171L147.38 171.96C148.1 176.184 148.628 180.456 148.628 181.704V189.24H142.436C141.86 189.24 141.38 189.096 140.564 188.424C140.948 186.888 141.14 185.112 141.14 183V173.4H134.708V183C134.708 188.472 134.084 189.24 131.204 189.24H127.316V173.4H120.884V189.24H114.5C113.732 189.24 113.54 190.344 113.54 192.12C113.54 193.896 113.732 195 114.5 195H131.204C133.796 195 135.812 194.52 137.348 193.464C138.932 194.472 140.66 195 142.436 195H160.772C161.54 195 161.732 193.896 161.732 192.12C161.732 190.344 161.54 189.24 160.772 189.24ZM172.91 160.968H166.478V167.496H172.91V160.968ZM178.622 189.24H172.91V171H166.478V189.24H160.766C159.998 189.24 159.806 190.344 159.806 192.12C159.806 193.896 159.998 195 160.766 195H178.622C179.39 195 179.582 193.896 179.582 192.12C179.582 190.344 179.39 189.24 178.622 189.24ZM184.337 171V189.24H178.625C177.857 189.24 177.665 190.344 177.665 192.12C177.665 193.896 177.857 195 178.625 195H190.769V171H184.337ZM184.337 204.408H190.769V197.88H184.337V204.408Z" fill="#54C7EF"/>
<path d="M117.585 0C108.786 -9.92922e-08 100.347 3.50401 94.1246 9.74133C87.9023 15.9786 84.4059 24.4384 84.4046 33.26V96.2264C84.3508 100.629 85.1692 104.998 86.8124 109.081C88.4557 113.164 90.891 116.879 93.9771 120.011C97.0633 123.143 100.739 125.63 104.791 127.328C108.843 129.025 113.191 129.899 117.582 129.899C121.974 129.899 126.322 129.025 130.374 127.328C134.426 125.63 138.102 123.143 141.188 120.011C144.274 116.879 146.709 113.164 148.352 109.081C149.996 104.998 150.814 100.629 150.76 96.2264V33.26C150.76 24.4389 147.265 15.9791 141.043 9.74163C134.822 3.50417 126.384 0 117.585 0ZM142.476 96.2264C142.476 102.845 139.854 109.192 135.186 113.872C130.518 118.552 124.187 121.181 117.585 121.181C110.983 121.181 104.652 118.552 99.984 113.872C95.3159 109.192 92.6935 102.845 92.6935 96.2264V33.26C92.6935 26.6415 95.3159 20.2941 99.984 15.6142C104.652 10.9342 110.983 8.30502 117.585 8.30502C124.187 8.30502 130.518 10.9342 135.186 15.6142C139.854 20.2941 142.476 26.6415 142.476 33.26V96.2264Z" fill="#186599"/>
<path d="M118.172 13.0365C115.384 12.9591 112.609 13.4429 110.011 14.4594C107.412 15.4759 105.043 17.0044 103.045 18.9545C101.046 20.9046 99.4568 23.2368 98.3724 25.813C97.288 28.3893 96.7298 31.1575 96.7308 33.9538V58.2899C96.7308 63.8388 98.9295 69.1605 102.843 73.0841C106.757 77.0078 112.065 79.2121 117.6 79.2121C123.134 79.2108 128.441 77.0059 132.353 73.0824C136.266 69.1588 138.464 63.8379 138.464 58.2899V34.373C138.449 22.9835 129.538 13.3509 118.172 13.0365ZM117.585 72.3794C113.858 72.3794 110.283 70.895 107.647 68.2527C105.012 65.6104 103.531 62.0267 103.531 58.2899V33.6443C103.531 29.9075 105.012 26.3238 107.647 23.6815C110.283 21.0392 113.858 19.5547 117.585 19.5547C121.312 19.5547 124.887 21.0392 127.522 23.6815C130.158 26.3238 131.639 29.9075 131.639 33.6443V58.2899C131.639 62.0267 130.158 65.6104 127.522 68.2527C124.887 70.895 121.312 72.3794 117.585 72.3794Z" fill="#54C7EF"/>
<path d="M131.634 95.8122V96.0817C131.634 103.833 125.58 110.481 117.849 110.62C115.982 110.656 114.127 110.319 112.392 109.628C110.657 108.936 109.077 107.906 107.744 106.595C106.411 105.285 105.352 103.721 104.629 101.996C103.905 100.27 103.532 98.4175 103.531 96.5459V95.8122C103.531 94.9068 103.172 94.0384 102.534 93.3982C101.895 92.758 101.029 92.3983 100.126 92.3983C99.2251 92.4023 98.3623 92.7635 97.7261 93.4032C97.09 94.0428 96.7321 94.9089 96.7308 95.8122V96.0318C96.7308 107.601 105.891 117.383 117.436 117.463C120.188 117.482 122.917 116.955 125.466 115.913C128.014 114.87 130.332 113.333 132.286 111.389C134.239 109.444 135.79 107.132 136.848 104.585C137.907 102.038 138.453 99.3054 138.454 96.5459V95.8122C138.454 94.9068 138.095 94.0384 137.457 93.3982C136.818 92.758 135.952 92.3983 135.049 92.3983C134.601 92.397 134.157 92.4844 133.743 92.6553C133.328 92.8263 132.952 93.0776 132.635 93.3947C132.317 93.7118 132.066 94.0886 131.894 94.5034C131.722 94.9183 131.634 95.363 131.634 95.8122Z" fill="#186599"/>
<path d="M96.7308 39.8631H103.546V88.4654C103.546 88.8162 103.407 89.1526 103.16 89.4007C102.912 89.6487 102.577 89.788 102.227 89.788H98.0451C97.6952 89.788 97.3596 89.6487 97.1122 89.4007C96.8648 89.1526 96.7258 88.8162 96.7258 88.4654V39.8631H96.7308Z" fill="#54C7EF"/>
<path d="M96.7308 61.9083C97.0109 64.2421 97.7591 66.4949 98.9303 68.5311C100.102 70.5674 101.672 72.345 103.546 73.757V77.0161C103.546 77.0161 97.3183 71.9053 96.7308 61.9083Z" fill="#38B3D2"/>
<path d="M134.895 91.0009C136.712 91.0009 138.185 89.5238 138.185 87.7018C138.185 85.8798 136.712 84.4028 134.895 84.4028C133.077 84.4028 131.604 85.8798 131.604 87.7018C131.604 89.5238 133.077 91.0009 134.895 91.0009Z" fill="#186599"/>
</svg>
