<?xml version="1.0" encoding="utf-8"?>
<!-- Generator: Adobe Illustrator 25.4.1, SVG Export Plug-In . SVG Version: 6.00 Build 0)  -->
<svg version="1.1" id="Layer_1" xmlns="http://www.w3.org/2000/svg" xmlns:xlink="http://www.w3.org/1999/xlink" x="0px" y="0px"
	 viewBox="0 0 566.9 566.9" style="enable-background:new 0 0 566.9 566.9;" xml:space="preserve">
<style type="text/css">
	.st0{fill:#D6EEFB;}
	.st1{fill:#E0F3FD;}
	.st2{fill:#186599;}
	.st3{font-family:'TimesNewRomanPS-BoldMT';}
	.st4{font-size:83.1423px;}
	.st5{fill:#54C7EF;}
	.st6{font-family:'AraHamah1964B-Bold';}
	.st7{font-size:64.6663px;}
	.st8{fill:#38B3D2;}
</style>
<path class="st0" d="M435.5,98.9v232.6c0,16.3-13.2,29.6-29.5,29.6H173.3c-16.3,0-29.5-13.2-29.5-29.6V98.9
	c0-16.3,13.2-29.6,29.5-29.6h232.6C422.2,69.3,435.5,82.5,435.5,98.9z"/>
<path class="st1" d="M435.5,98.9v190.6c-164-31.2-218.6-144.6-236.6-220.2h207.1C422.2,69.3,435.5,82.5,435.5,98.9z"/>
<text id="XMLID_525_" transform="matrix(1 0 0 1 121.6118 461.9919)" class="st2 st3 st4">Penicillin</text>
<text id="XMLID_524_" transform="matrix(1 0 0 1 123.9204 497.6306)" class="st5 st6 st7">نـــيـــلـــســـنـــــب</text>
<g>
	<path id="XMLID_383_" class="st2" d="M289.6,85.4c-36.8,0-66.6,29.8-66.6,66.6v126.2c0,36.8,29.8,66.7,66.6,66.7
		c18.4,0,35.1-7.5,47.1-19.5c12.1-12.1,19.5-28.7,19.5-47.1V152.1C356.3,115.3,326.4,85.4,289.6,85.4z M339.6,278.2
		c0,13.8-5.6,26.3-14.6,35.4c-9,9-21.6,14.6-35.4,14.6c-27.6,0-50-22.4-50-50V152.1c0-27.6,22.4-50,50-50c27.6,0,50,22.4,50,50
		V278.2z"/>
	<path id="XMLID_373_" class="st5" d="M290.8,111.5c-23.7-0.7-43.1,18.4-43.1,41.9v48.8c0,23.1,18.8,41.9,41.9,41.9h0
		c23.1,0,41.9-18.8,41.9-41.9v-47.9C331.5,131.5,313.6,112.2,290.8,111.5z M289.6,230.4c-15.6,0-28.2-12.6-28.2-28.2v-49.4
		c0-15.6,12.6-28.2,28.2-28.2s28.2,12.6,28.2,28.2v49.4C317.8,217.8,305.2,230.4,289.6,230.4L289.6,230.4z"/>
	<path id="XMLID_356_" class="st2" d="M317.8,277.4v0.5c0,15.5-12.2,28.9-27.7,29.1c-15.8,0.3-28.8-12.4-28.8-28.2v-1.5
		c0-3.8-3.1-6.8-6.8-6.8h0c-3.8,0-6.8,3.1-6.8,6.8l0,0.4c0,23.2,18.4,42.8,41.6,42.9c11.7,0.1,22.3-4.6,29.9-12.3
		c7.6-7.6,12.3-18,12.3-29.6v-1.5c0-3.8-3.1-6.8-6.8-6.8h0C320.9,270.6,317.8,273.6,317.8,277.4z"/>
	<path id="XMLID_358_" class="st5" d="M258.7,265.4h-8.4c-1.5,0-2.6-1.2-2.6-2.6v-97.4h13.7v97.4
		C261.4,264.2,260.2,265.4,258.7,265.4z"/>
	<path id="XMLID_355_" class="st8" d="M247.7,209.5c0,0,0.9,14.3,13.7,23.7v6.5C261.4,239.7,248.9,229.5,247.7,209.5z"/>
	<circle id="XMLID_353_" class="st2" cx="324.4" cy="261.1" r="6.6"/>
</g>
</svg>
