<svg width="23" height="23" viewBox="0 0 23 23" fill="none" xmlns="http://www.w3.org/2000/svg">
<path d="M8.52 2.33999L3.13 6.53999C2.65049 6.95659 2.25923 7.46497 1.97928 8.03517C1.69934 8.60536 1.53638 9.22583 1.5 9.85999L1.5 17.27C1.50131 18.3871 1.94497 19.4582 2.73393 20.249C3.52289 21.0398 4.59293 21.486 5.71 21.49H17.29C18.4055 21.4866 19.4743 21.0419 20.2631 20.2531C21.0519 19.4643 21.4966 18.3955 21.5 17.28V9.99999C21.4623 9.33007 21.2822 8.67588 20.9718 8.081C20.6614 7.48611 20.2279 6.96419 19.7 6.54999L13.52 2.21699C12.7685 1.73892 11.8917 1.49532 11.0013 1.51723C10.1109 1.53913 9.2471 1.82554 8.52 2.33999V2.33999Z" stroke="#838383" stroke-width="1.5" stroke-linecap="round" stroke-linejoin="round"/>
</svg>
